<svg xmlns="http://www.w3.org/2000/svg" viewBox="0 0 1200 560" style="background: white;">
  <!-- Title -->
  <text x="600" y="30" font-family="Arial, sans-serif" font-size="24" font-weight="bold" text-anchor="middle" fill="#333">
    ESP32-WROOM-32 CHORD SYNTH PINOUT (with Touch Pads)
  </text>
  
  <!-- Board outline -->
  <rect x="100" y="220" width="700" height="180" fill="#1a1a1a" stroke="#000" stroke-width="2" rx="5"/>
  
  <!-- USB connector -->
  <rect x="80" y="270" width="25" height="80" fill="#c0c0c0" stroke="#808080" stroke-width="2"/>
  <text x="70" y="310" font-family="Arial, sans-serif" font-size="12" font-weight="bold" text-anchor="end" fill="#333">USB</text>
  
  <!-- Define pin positions - TOP ROW (left to right) -->
  <!-- Top: VN,GND,D13,D12,D14,D27,D26,D25,D33,D32,D35,D34,VN,VP,EN -->
  <g id="top-pins">
    <!-- VN -->
    <g id="pin-VN1"><circle cx="170" cy="220" r="4" fill="#666"/><text x="170" y="210" font-size="10" text-anchor="middle" fill="#333">VN</text></g>
    <!-- GND -->
    <g id="pin-GND1"><circle cx="210" cy="220" r="4" fill="#000"/><text x="210" y="210" font-size="10" text-anchor="middle" fill="#333">GND</text></g>
    
    <!-- D13 - OK Button -->
    <g id="pin-D13">
      <circle cx="250" cy="220" r="5" fill="#95E1D3" stroke="#333" stroke-width="1.5"/>
      <text x="250" y="210" font-size="11" font-weight="bold" text-anchor="middle" fill="#333">D13</text>
      <line x1="250" y1="220" x2="250" y2="130" stroke="#95E1D3" stroke-width="2"/>
      <text x="255" y="150" font-size="11" font-weight="bold" fill="#95E1D3">OK Button</text>
      <text x="255" y="165" font-size="9" fill="#666">(Waveform)</text>
    </g>
    
    <!-- D12 -->
    <g id="pin-D12"><circle cx="290" cy="220" r="4" fill="#666"/><text x="290" y="210" font-size="10" text-anchor="middle" fill="#333">D12</text></g>
    
    <!-- D14 - Touch Pad 3 -->
    <g id="pin-D14">
      <circle cx="330" cy="220" r="5" fill="#FFD93D" stroke="#333" stroke-width="1.5"/>
      <text x="330" y="210" font-size="11" font-weight="bold" text-anchor="middle" fill="#333">D14</text>
      <line x1="330" y1="220" x2="330" y2="80" stroke="#FFD93D" stroke-width="2"/>
      <text x="335" y="100" font-size="11" font-weight="bold" fill="#FFD93D">TOUCH PAD 3</text>
      <text x="335" y="115" font-size="9" fill="#666">(T6)</text>
    </g>
    
    <!-- D27 - Touch Pad 1 -->
    <g id="pin-D27">
      <circle cx="370" cy="220" r="5" fill="#FFD93D" stroke="#333" stroke-width="1.5"/>
      <text x="370" y="210" font-size="11" font-weight="bold" text-anchor="middle" fill="#333">D27</text>
      <line x1="370" y1="220" x2="370" y2="90" stroke="#FFD93D" stroke-width="2"/>
      <text x="375" y="110" font-size="11" font-weight="bold" fill="#FFD93D">TOUCH PAD 1</text>
      <text x="375" y="125" font-size="9" fill="#666">(T7)</text>
    </g>
    
    <!-- D26 - I2S BCLK -->
    <g id="pin-D26">
      <circle cx="410" cy="220" r="5" fill="#4ECDC4" stroke="#333" stroke-width="1.5"/>
      <text x="410" y="210" font-size="11" font-weight="bold" text-anchor="middle" fill="#333">D26</text>
      <line x1="410" y1="220" x2="410" y2="120" stroke="#4ECDC4" stroke-width="2"/>
      <text x="415" y="140" font-size="11" font-weight="bold" fill="#4ECDC4">I2S BCLK</text>
      <text x="415" y="155" font-size="9" fill="#666">(MAX98357A)</text>
    </g>
    
    <!-- D25 - I2S LRC -->
    <g id="pin-D25">
      <circle cx="450" cy="220" r="5" fill="#4ECDC4" stroke="#333" stroke-width="1.5"/>
      <text x="450" y="210" font-size="11" font-weight="bold" text-anchor="middle" fill="#333">D25</text>
      <line x1="450" y1="220" x2="450" y2="130" stroke="#4ECDC4" stroke-width="2"/>
      <text x="455" y="150" font-size="11" font-weight="bold" fill="#4ECDC4">I2S LRC</text>
      <text x="455" y="165" font-size="9" fill="#666">(MAX98357A)</text>
    </g>
    
    <!-- D33 - DIAL2 -->
    <g id="pin-D33">
      <circle cx="490" cy="220" r="5" fill="#FF6B35" stroke="#333" stroke-width="1.5"/>
      <text x="490" y="210" font-size="11" font-weight="bold" text-anchor="middle" fill="#333">D33</text>
      <line x1="490" y1="220" x2="490" y2="140" stroke="#FF6B35" stroke-width="2" marker-end="url(#arrowhead)"/>
      <text x="495" y="160" font-size="11" font-weight="bold" fill="#FF6B35">DIAL2</text>
      <text x="495" y="175" font-size="10" fill="#666">(Unison)</text>
    </g>
    
    <!-- D32 - Touch Pad 2 -->
    <g id="pin-D32">
      <circle cx="530" cy="220" r="5" fill="#FFD93D" stroke="#333" stroke-width="1.5"/>
      <text x="530" y="210" font-size="11" font-weight="bold" text-anchor="middle" fill="#333">D32</text>
      <line x1="530" y1="220" x2="530" y2="70" stroke="#FFD93D" stroke-width="2"/>
      <text x="535" y="90" font-size="11" font-weight="bold" fill="#FFD93D">TOUCH PAD 2</text>
      <text x="535" y="105" font-size="9" fill="#666">(T9)</text>
    </g>
    
    <!-- D35 -->
    <g id="pin-D35"><circle cx="570" cy="220" r="4" fill="#666"/><text x="570" y="210" font-size="10" text-anchor="middle" fill="#333">D35</text></g>
    <!-- D34 -->
    <g id="pin-D34"><circle cx="610" cy="220" r="4" fill="#666"/><text x="610" y="210" font-size="10" text-anchor="middle" fill="#333">D34</text></g>
    <!-- VN -->
    <g id="pin-VN2"><circle cx="650" cy="220" r="4" fill="#666"/><text x="650" y="210" font-size="10" text-anchor="middle" fill="#333">VN</text></g>
    <!-- VP -->
    <g id="pin-VP"><circle cx="690" cy="220" r="4" fill="#666"/><text x="690" y="210" font-size="10" text-anchor="middle" fill="#333">VP</text></g>
    <!-- EN -->
    <g id="pin-EN"><circle cx="730" cy="220" r="4" fill="#666"/><text x="730" y="210" font-size="10" text-anchor="middle" fill="#333">EN</text></g>
  </g>
  
  <!-- Define pin positions - BOTTOM ROW (left to right) -->
  <!-- Bottom: 3V3,GND,D15,D2,D4,D16,D17,D5,D18,D19,D21,RX0,TX0,D22,D23 -->
  <g id="bottom-pins">
    <!-- 3V3 -->
    <g id="pin-3V3"><circle cx="170" cy="400" r="4" fill="#c00"/><text x="170" y="420" font-size="10" font-weight="bold" text-anchor="middle" fill="#c00">3V3</text></g>
    <!-- GND -->
    <g id="pin-GND2"><circle cx="210" cy="400" r="4" fill="#000"/><text x="210" y="420" font-size="10" text-anchor="middle" fill="#333">GND</text></g>
    <!-- D15 -->
    <g id="pin-D15"><circle cx="250" cy="400" r="4" fill="#666"/><text x="250" y="420" font-size="10" text-anchor="middle" fill="#333">D15</text></g>
    <!-- D2 -->
    <g id="pin-D2"><circle cx="290" cy="400" r="4" fill="#666"/><text x="290" y="420" font-size="10" text-anchor="middle" fill="#333">D2</text></g>
    
    <!-- D4 - DIAL1 -->
    <g id="pin-D4">
      <circle cx="330" cy="400" r="5" fill="#FF6B35" stroke="#333" stroke-width="1.5"/>
      <text x="330" y="420" font-size="11" font-weight="bold" text-anchor="middle" fill="#333">D4</text>
      <line x1="330" y1="400" x2="330" y2="505" stroke="#FF6B35" stroke-width="2"/>
      <text x="335" y="475" font-size="11" font-weight="bold" fill="#FF6B35">DIAL1</text>
      <text x="335" y="490" font-size="10" fill="#666">(Volume)</text>
    </g>
    
    <!-- D16 - BACK Button -->
    <g id="pin-D16">
      <circle cx="370" cy="400" r="5" fill="#95E1D3" stroke="#333" stroke-width="1.5"/>
      <text x="370" y="420" font-size="11" font-weight="bold" text-anchor="middle" fill="#333">D16</text>
      <line x1="370" y1="400" x2="370" y2="495" stroke="#95E1D3" stroke-width="2"/>
      <text x="375" y="465" font-size="11" font-weight="bold" fill="#95E1D3">BACK Button</text>
      <text x="375" y="480" font-size="9" fill="#666">(Mode)</text>
    </g>
    
    <!-- D17 -->
    <g id="pin-D17"><circle cx="410" cy="400" r="4" fill="#666"/><text x="410" y="420" font-size="10" text-anchor="middle" fill="#333">D17</text></g>
    <!-- D5 -->
    <g id="pin-D5"><circle cx="450" cy="400" r="4" fill="#666"/><text x="450" y="420" font-size="10" text-anchor="middle" fill="#333">D5</text></g>
    <!-- D18 -->
    <g id="pin-D18"><circle cx="490" cy="400" r="4" fill="#666"/><text x="490" y="420" font-size="10" text-anchor="middle" fill="#333">D18</text></g>
    
    <!-- D19 - I2C SCL -->
    <g id="pin-D19">
      <circle cx="530" cy="400" r="5" fill="#F38181" stroke="#333" stroke-width="1.5"/>
      <text x="530" y="420" font-size="11" font-weight="bold" text-anchor="middle" fill="#333">D19</text>
      <line x1="530" y1="400" x2="530" y2="495" stroke="#F38181" stroke-width="2"/>
      <text x="535" y="465" font-size="11" font-weight="bold" fill="#F38181">I2C SCL</text>
      <text x="535" y="480" font-size="9" fill="#666">(OLED)</text>
    </g>
    
    <!-- D21 - I2C SDA -->
    <g id="pin-D21">
      <circle cx="570" cy="400" r="5" fill="#F38181" stroke="#333" stroke-width="1.5"/>
      <text x="570" y="420" font-size="11" font-weight="bold" text-anchor="middle" fill="#333">D21</text>
      <line x1="570" y1="400" x2="570" y2="485" stroke="#F38181" stroke-width="2"/>
      <text x="575" y="455" font-size="11" font-weight="bold" fill="#F38181">I2C SDA</text>
      <text x="575" y="470" font-size="9" fill="#666">(OLED)</text>
    </g>
    
    <!-- RX0 -->
    <g id="pin-RX0"><circle cx="610" cy="400" r="4" fill="#666"/><text x="610" y="420" font-size="10" text-anchor="middle" fill="#333">RX0</text></g>
    <!-- TX0 -->
    <g id="pin-TX0"><circle cx="650" cy="400" r="4" fill="#666"/><text x="650" y="420" font-size="10" text-anchor="middle" fill="#333">TX0</text></g>
    
    <!-- D22 - I2S DIN -->
    <g id="pin-D22">
      <circle cx="690" cy="400" r="5" fill="#4ECDC4" stroke="#333" stroke-width="1.5"/>
      <text x="690" y="420" font-size="11" font-weight="bold" text-anchor="middle" fill="#333">D22</text>
      <line x1="690" y1="400" x2="690" y2="485" stroke="#4ECDC4" stroke-width="2"/>
      <text x="695" y="460" font-size="11" font-weight="bold" fill="#4ECDC4">I2S DIN</text>
      <text x="695" y="475" font-size="9" fill="#666">(MAX98357A)</text>
    </g>
    
    <!-- D23 -->
    <g id="pin-D23"><circle cx="730" cy="400" r="4" fill="#666"/><text x="730" y="420" font-size="10" text-anchor="middle" fill="#333">D23</text></g>
  </g>
  
  <!-- Legend -->
  <g id="legend" transform="translate(850, 160)">
    <text x="0" y="0" font-family="Arial, sans-serif" font-size="14" font-weight="bold" fill="#333">PIN FUNCTIONS:</text>
    
    <text x="0" y="25" font-family="Arial, sans-serif" font-size="12" font-weight="bold" fill="#333">INPUT CONTROLS:</text>
    <circle cx="10" cy="40" r="4" fill="#FF6B35"/>
    <text x="20" y="44" font-family="Arial, sans-serif" font-size="10" fill="#333">D4 → DIAL1 (Volume 0-100%)</text>
    <circle cx="10" cy="55" r="4" fill="#FF6B35"/>
    <text x="20" y="59" font-family="Arial, sans-serif" font-size="10" fill="#333">D33 → DIAL2 (Unison x1-x4)</text>
    <circle cx="10" cy="70" r="4" fill="#95E1D3"/>
    <text x="20" y="74" font-family="Arial, sans-serif" font-size="10" fill="#333">D13 → OK Button (Waveform)</text>
    <circle cx="10" cy="85" r="4" fill="#95E1D3"/>
    <text x="20" y="89" font-family="Arial, sans-serif" font-size="10" fill="#333">D16 → BACK Button (Mode)</text>
    
    <text x="0" y="130" font-family="Arial, sans-serif" font-size="12" font-weight="bold" fill="#333">TOUCH PADS:</text>
    <circle cx="10" cy="145" r="4" fill="#FFD93D"/>
    <text x="20" y="149" font-family="Arial, sans-serif" font-size="10" fill="#333">D27 → Touch Pad 1 (T7)</text>
    <circle cx="10" cy="160" r="4" fill="#FFD93D"/>
    <text x="20" y="164" font-family="Arial, sans-serif" font-size="10" fill="#333">D32 → Touch Pad 2 (T9)</text>
    <circle cx="10" cy="175" r="4" fill="#FFD93D"/>
    <text x="20" y="179" font-family="Arial, sans-serif" font-size="10" fill="#333">D14 → Touch Pad 3 (T6)</text>
    
    <text x="0" y="205" font-family="Arial, sans-serif" font-size="12" font-weight="bold" fill="#333">I2S AUDIO (MAX98357A):</text>
    <circle cx="10" cy="220" r="4" fill="#4ECDC4"/>
    <text x="20" y="224" font-family="Arial, sans-serif" font-size="10" fill="#333">D26 → BCLK (Bit Clock)</text>
    <circle cx="10" cy="235" r="4" fill="#4ECDC4"/>
    <text x="20" y="239" font-family="Arial, sans-serif" font-size="10" fill="#333">D25 → LRC (Word Select)</text>
    <circle cx="10" cy="250" r="4" fill="#4ECDC4"/>
    <text x="20" y="254" font-family="Arial, sans-serif" font-size="10" fill="#333">D22 → DIN (Audio Data)</text>
    
    <text x="0" y="280" font-family="Arial, sans-serif" font-size="12" font-weight="bold" fill="#333">I2C DISPLAY (OLED):</text>
    <circle cx="10" cy="295" r="4" fill="#F38181"/>
    <text x="20" y="299" font-family="Arial, sans-serif" font-size="10" fill="#333">D19 → SCL (I2C Clock)</text>
    <circle cx="10" cy="310" r="4" fill="#F38181"/>
    <text x="20" y="314" font-family="Arial, sans-serif" font-size="10" fill="#333">D21 → SDA (I2C Data)</text>
    
    <text x="0" y="340" font-family="Arial, sans-serif" font-size="12" font-weight="bold" fill="#333">POWER:</text>
    <circle cx="10" cy="355" r="4" fill="#c00"/>
    <text x="20" y="359" font-family="Arial, sans-serif" font-size="10" fill="#333">3V3 → Power supply</text>
    <circle cx="10" cy="370" r="4" fill="#000"/>
    <text x="20" y="374" font-family="Arial, sans-serif" font-size="10" fill="#333">GND → Ground</text>
    <circle cx="10" cy="385" r="4" fill="#c00"/>
    <text x="20" y="389" font-family="Arial, sans-serif" font-size="10" fill="#333">VIN → 5V input (optional)</text>
  </g>
  
  <!-- Arrow marker definition -->
  <defs>
    <marker id="arrowhead" markerWidth="10" markerHeight="10" refX="9" refY="3" orient="auto">
      <polygon points="0 0, 10 3, 0 6" fill="#FF6B35"/>
    </marker>
  </defs>
</svg>

